# AST/ASF file generated using VICON BodyLanguage
# -----------------------------------------------
:version 1.10
:name VICON
:units
  mass 1.0
  length 0.45
  angle deg
:documentation
   .ast/.asf automatically generated from VICON data using
   VICON BodyBuilder and BodyLanguage model FoxedUp or BRILLIANT.MOD
:root
   order TX TY TZ RX RY RZ
   axis XYZ
   position 0 0 0  
   orientation 0 0 0 
:bonedata
  begin
     id 1 
     name lhipjoint
     direction 0.440178 -0.822639 0.359871 
     length 2.53113 
     axis 0 0 0  XYZ
  end
  begin
     id 2 
     name lfemur
     direction 0.34202 -0.939693 0  
     length 7.88132  
     axis 0 0 20  XYZ
    dof rx ry rz
    limits (-160.0 20.0)
           (-70.0 70.0)
           (-60.0 70.0)
  end
  begin
     id 3 
     name ltibia
     direction 0.34202 -0.939693 0   
     length 8.43783   
     axis 0 0 20   XYZ
    dof rx
    limits (-10.0 170.0)
  end
  begin
     id 4 
     name lfoot
     direction 0.0886351 -0.243523 0.965837   
     length 2.63414   
     axis -90 7.62852e-016 20   XYZ
    dof rx rz
    limits (-45.0 90.0)
           (-70.0 20.0)
  end
  begin
     id 5 
     name ltoes
     direction 1.53703e-011 -4.21717e-011 1   
     length 1.31427   
     axis -90 7.62852e-016 20   XYZ
    dof rx
    limits (-90.0 20.0)
  end
  begin
     id 6 
     name rhipjoint
     direction -0.399779 -0.839773 0.367367   
     length 2.47948  
     axis 0 0 0  XYZ 
  end
  begin
     id 7 
     name rfemur
     direction -0.34202 -0.939693 0   
     length 7.74806   
     axis 0 0 -20   XYZ
    dof rx ry rz
    limits (-160.0 20.0)
           (-70.0 70.0)
           (-70.0 60.0)
  end
  begin
     id 8 
     name rtibia
     direction -0.34202 -0.939693 0   
     length 8.74432   
     axis 0 0 -20   XYZ
    dof rx
    limits (-10.0 170.0)
 end
 begin
     id 9 
     name rfoot
     direction -0.108514 -0.298139 0.948334   
     length 2.66102  
     axis -90 -7.62852e-016 -20   XYZ
    dof rx rz
    limits (-45.0 90.0)
           (-20.0 70.0)
  end
  begin
     id 10 
     name rtoes
     direction -1.53392e-011 -4.22077e-011 1   
     length 1.31983   
     axis -90 -7.62852e-016 -20   XYZ
    dof rx
    limits (-90.0 20.0)
  end
  begin
     id 11 
     name lowerback
     direction 0.0113257 0.999866 0.0118602   
     length 2.58694   
     axis 0 0 0   XYZ
    dof rx ry rz
    limits (-20.0 45.0)
           (-30.0 30.0)
           (-30.0 30.0)
  end
  begin
     id 12 
     name upperback
     direction -0.0164747 0.995193 -0.0965375   
     length 2.52368   
     axis 0 0 0   XYZ
    dof rx ry rz
    limits (-20.0 45.0)
           (-30.0 30.0)
           (-30.0 30.0)
  end
  begin
     id 13 
     name thorax
     direction -0.0194301 0.99433 -0.104552   
     length 2.56099   
     axis 0 0 0   XYZ
    dof rx ry rz
    limits (-20.0 45.0)
           (-30.0 30.0)
           (-30.0 30.0)
  end
  begin
     id 14 
     name lowerneck
     direction 0.0148543 0.995587 -0.092657   
     length 1.71582   
     axis 0 0 0   XYZ
    dof rx ry rz
    limits (-20.0 45.0)
           (-30.0 30.0)
           (-30.0 30.0)
  end
  begin
     id 15 
     name upperneck
     direction -0.0135467 0.993656 -0.111639   
     length 1.68937   
     axis 0 0 0   XYZ
    dof rx ry rz
    limits (-20.0 45.0)
           (-30.0 30.0)
           (-30.0 30.0)
  end
  begin
     id 16
     name head
     direction -0.00615349 0.999547 -0.029448  
     length 1.7462  
     axis 0 0 0   XYZ
    dof rx ry rz
    limits (-20.0 45.0)
           (-30.0 30.0)
           (-30.0 30.0)
  end
  begin
     id 17 
     name lclavicle
     direction 0.988267 0.149885 0.0293713  
     length 4.47222  
     axis 0 0 0   XYZ
    dof ry rz
    limits (-20.0 10.0)
           (0.0 20.0)
  end
  begin
     id 18 
     name lhumerus
     direction 1 -4.48986e-011 -1.14833e-027   
     length 5.37148   
     axis 180 -30 -90   XYZ
    dof rx ry rz
    limits (-60.0 90.0)
           (-90.0 90.0)
           (-90.0 90.0)
  end
  begin
     id 19
     name lradius
     direction 0.999998 0.00170963 -0.000987055   
     length 3.94212   
     axis 180 -30 -90   XYZ
    dof rx
    limits (-10.0 170.0)
  end
  begin
     id 20
     name lwrist
     direction 0.999998 7.53149e-005 -0.00194706   
     length 1.97106   
     axis 4.65056e-015 90 90   XYZ
    dof ry
    limits (-180.0 0.0)
 end
  begin
     id 21 
     name lhand
     direction 1 -4.48973e-011 -1.31746e-026   
     length 1.17917   
     axis 8.4065e-015 90 90   XYZ
    dof rx rz
    limits (-90.0 90.0)
           (-45.0 45.0)
  end
  begin
     id 22 
     name lfingers
     direction 1 -4.49107e-011 -2.63492e-026   
     length 0.950679   
     axis 1.6813e-014 90 90   XYZ
    dof rx
    limits (0.0 90.0)
  end
  begin
     id 23
     name lthumb
     direction 0.707107 -6.35048e-011 0.707107   
     length 1.36499   
     axis -90 45 2.85299e-015   XYZ
    dof rx rz
    limits (-45.0 45.0)
           (-45.0 45.0)
  end
  begin
     id 24 
     name rclavicle
     direction -0.996699 0.0642895 -0.0495725   
     length 4.62611  
     axis 0 0 0   XYZ 
    dof ry rz
    limits (-10.0 20.0)
           (-20.0 0.0)
  end
  begin
     id 25 
     name rhumerus
     direction -1 -4.48919e-011 -2.41059e-027  
     length 5.4981   
     axis 180 30 90   XYZ
    dof rx ry rz
    limits (-90.0 60.0)
           (-90.0 90.0)
           (-90.0 90.0)
  end
  begin
     id 26 
     name rradius
     direction -0.999999 0.00118101 -0.000681858   
     length 3.48381   
     axis 180 30 90   XYZ
    dof rx
    limits (-10.0 170.0)
  end
  begin
     id 27 
     name rwrist
     direction -0.999999 0.000321823 -0.00132288   
     length 1.7419   
     axis 4.65056e-015 -90 -90   XYZ
    dof ry
    limits (-180.0 0.0)
  end
  begin
     id 28
     name rhand
     direction -1 -4.49022e-011 -1.31746e-026   
     length 1.34932   
     axis 8.4065e-015 -90 -90   XYZ
    dof rx rz
    limits (-90.0 90.0)
           (-45.0 45.0)
  end
  begin
     id 29
     name rfingers
     direction -1 -4.49178e-011 -2.63492e-026   
     length 1.08785   
     axis 1.6813e-014 -90 -90   XYZ
    dof rx
    limits (0.0 90.0)
  end
  begin
     id 30
     name rthumb
     direction -0.707107 -6.34713e-011 0.707107   
     length 1.56195   
     axis -90 -45 -2.85299e-015   XYZ
    dof rx rz
    limits (-45.0 45.0)
           (-45.0 45.0)
  end
:hierarchy
  begin
    root lhipjoint rhipjoint lowerback
    lhipjoint lfemur
    lfemur ltibia
    ltibia lfoot
    lfoot ltoes
    rhipjoint rfemur
    rfemur rtibia
    rtibia rfoot
    rfoot rtoes
    lowerback upperback
    upperback thorax
    thorax lowerneck lclavicle rclavicle
    lowerneck upperneck
    upperneck head
    lclavicle lhumerus
    lhumerus lradius
    lradius lwrist
    lwrist lhand lthumb
    lhand lfingers
    rclavicle rhumerus
    rhumerus rradius
    rradius rwrist
    rwrist rhand rthumb
    rhand rfingers
  end

#!OML:ASF X:\für Bonn\!DataBase\2005_08_10_Bjorn_Final\c3d\bjorn.ASF
:FULLY-SPECIFIED
:DEGREES
16
root 3.53452 18.8461 4.99762 -171.79 -7.29002 183.863
lowerback 1.42132 -0.489395 0.458594
upperback 9.72603 -1.48089 -3.05343
thorax 9.37988 -0.955016 -3.67058
lowerneck -1.48164 2.71627 -2.58108
upperneck 5.45228 3.65399 -0.609863
head 1.91219 1.71506 0.317759
rclavicle 1.90833e-014 9.54166e-015
rhumerus -30.4561 -18.7212 -85.1227
rradius 26.0831
rwrist 8.15563
rhand -11.3225 14.6016
rfingers 7.12502
rthumb 14.7098 -14.8565
lclavicle 1.90833e-014 9.54166e-015
lhumerus -10.0276 -27.5289 76.3519
lradius 56.3455
lwrist -17.0629
lhand -19.0964 -7.27328
lfingers 7.12502
lthumb 7.21207 22.5838
rfemur -38.8605 -8.40084 25.0698
rtibia 48.4259
rfoot -15.0918 14.2771
rtoes -2.88698
lfemur -17.67 7.1045 -14.674
ltibia 37.6892
lfoot -23.1569 -5.3624
ltoes -9.55606
17
root 3.52502 18.8437 4.98859 -171.764 -7.44099 183.803
lowerback 1.52751 -0.53964 0.504853
upperback 9.79554 -1.56752 -2.98015
thorax 9.38991 -1.00136 -3.6234
lowerneck -1.65187 2.72771 -2.45706
upperneck 5.39698 3.68386 -0.790958
head 1.92993 1.73041 0.243584
rclavicle -1.98785e-014 -5.08889e-014
rhumerus -30.3409 -18.8439 -85.0562
rradius 26.0021
rwrist 8.26817
rhand -11.3234 14.607
rfingers 7.12502
rthumb 14.7089 -14.8512
lclavicle -1.98785e-014 -5.08889e-014
lhumerus -9.93387 -27.4623 76.4463
lradius 56.5534
lwrist -16.9274
lhand -19.1693 -7.28643
lfingers 7.12502
lthumb 7.14173 22.5731
rfemur -39.0032 -8.27882 25.0786
rtibia 48.3931
rfoot -14.9548 15.1088
rtoes -2.22708
lfemur -17.6976 7.21317 -14.743
ltibia 37.6999
lfoot -23.1814 -5.67292
ltoes -9.57251
18
root 3.51547 18.8406 4.97679 -171.744 -7.59843 183.735
lowerback 1.62348 -0.594873 0.546281
upperback 9.87127 -1.66185 -2.89804
thorax 9.41296 -1.05234 -3.56515
lowerneck -1.7989 2.74023 -2.3407
upperneck 5.30828 3.71451 -0.984579
head 1.93302 1.74618 0.166066
rclavicle 7.15625e-015 -4.77083e-014
rhumerus -30.2 -19.0044 -84.9582
rradius 25.8695
rwrist 8.46039
rhand -11.3288 14.671
rfingers 7.12502
rthumb 14.7038 -14.7875
lclavicle 7.15625e-015 -4.77083e-014
lhumerus -9.87526 -27.3733 76.5657
lradius 56.7687
lwrist -16.7869
lhand -19.2484 -7.30142
lfingers 7.12502
lthumb 7.06537 22.5607
rfemur -39.1442 -8.20568 25.0837
rtibia 48.3337
rfoot -14.879 15.8397
rtoes -2.11192
lfemur -17.7056 7.34132 -14.8186
ltibia 37.7041
lfoot -23.1823 -6.00785
ltoes -9.4077
19
root 3.50547 18.8374 4.96339 -171.732 -7.76924 183.666
lowerback 1.73035 -0.644519 0.609853
upperback 9.94299 -1.74902 -2.81851
thorax 9.42532 -1.09795 -3.52083
lowerneck -1.91587 2.74835 -2.1995
upperneck 5.20737 3.73676 -1.18578
head 1.92769 1.75812 0.0812666
rclavicle -1.51076e-014 -4.77083e-014
rhumerus -30.0798 -19.2618 -84.8294
rradius 25.7355
rwrist 8.65697
rhand -11.2998 14.7415
rfingers 7.12502
rthumb 14.7317 -14.715
lclavicle -1.51076e-014 -4.77083e-014
lhumerus -9.83519 -27.3311 76.7037
lradius 56.9624
lwrist -16.5961
lhand -19.3409 -7.34638
lfingers 7.12502
lthumb 6.97607 22.5187
rfemur -39.2661 -8.09692 25.0659
rtibia 48.2526
rfoot -14.9395 16.354
rtoes -2.55785
lfemur -17.6907 7.41489 -14.8925
ltibia 37.698
lfoot -23.1921 -6.30794
ltoes -9.30243
20
root 3.49519 18.8333 4.94812 -171.71 -7.95202 183.599
lowerback 1.81198 -0.709185 0.672697
upperback 10.0257 -1.85839 -2.71471
thorax 9.46437 -1.15534 -3.45298
lowerneck -2.06057 2.76181 -2.12618
upperneck 5.09793 3.7685 -1.37789
head 1.92324 1.77359 0.0112738
rclavicle 1.59028e-015 3.33958e-014
rhumerus -29.9055 -19.4635 -84.6961
rradius 25.5776
rwrist 8.84145
rhand -11.2829 14.794
rfingers 7.12502
rthumb 14.748 -14.6613
lclavicle 1.59028e-015 3.33958e-014
lhumerus -9.79427 -27.249 76.8705
lradius 57.1337
lwrist -16.3575
lhand -19.4117 -7.44752
lfingers 7.12502
lthumb 6.90773 22.4198
rfemur -39.4019 -7.99941 25.0503
rtibia 48.1456
rfoot -15.0216 16.7085
rtoes -3.25571
lfemur -17.684 7.46147 -14.9655
ltibia 37.6903
lfoot -23.2114 -6.56714
ltoes -9.20444
